<svg width="196" height="33" viewBox="0 0 196 33" fill="none" xmlns="http://www.w3.org/2000/svg">
<path fill-rule="evenodd" clip-rule="evenodd" d="M24.4678 25.1417L29.2678 22.5V29.8583L24.4678 32.5V25.1417Z" fill="#2E7060"/>
<path fill-rule="evenodd" clip-rule="evenodd" d="M29.2678 11.7V19.1187L19.2678 24.9V17.4812L29.2678 11.7Z" fill="#1C4A3F"/>
<path fill-rule="evenodd" clip-rule="evenodd" d="M0.467773 28.495V0.5L14.8678 8.88202L29.2678 0.5V7.86343L14.8678 16.2459L7.34791 11.8689V32.5L0.467773 28.495Z" fill="#2E7060"/>
<path d="M188.499 26.725C187.304 26.725 186.199 26.5085 185.183 26.0754C184.183 25.6423 183.302 25.0375 182.54 24.261C181.794 23.4845 181.211 22.5735 180.793 21.5282C180.375 20.4829 180.166 19.3405 180.166 18.101C180.166 16.8615 180.367 15.7191 180.771 14.6738C181.189 13.6135 181.771 12.7026 182.518 11.941C183.279 11.1645 184.168 10.5671 185.183 10.149C186.199 9.71592 187.304 9.49939 188.499 9.49939C189.693 9.49939 190.761 9.70099 191.702 10.1042C192.658 10.5074 193.464 11.045 194.121 11.717C194.778 12.3741 195.248 13.0983 195.532 13.8898L192.799 15.1666C192.486 14.3303 191.956 13.6434 191.209 13.1058C190.462 12.5533 189.559 12.277 188.499 12.277C187.453 12.277 186.527 12.5234 185.721 13.0162C184.93 13.509 184.31 14.1885 183.862 15.0546C183.429 15.9207 183.212 16.9362 183.212 18.101C183.212 19.2658 183.429 20.2887 183.862 21.1698C184.31 22.0359 184.93 22.7154 185.721 23.2082C186.527 23.701 187.453 23.9474 188.499 23.9474C189.559 23.9474 190.462 23.6786 191.209 23.141C191.956 22.5885 192.486 21.8941 192.799 21.0578L195.532 22.3346C195.248 23.1261 194.778 23.8578 194.121 24.5298C193.464 25.1869 192.658 25.717 191.702 26.1202C190.761 26.5234 189.693 26.725 188.499 26.725Z" fill="#051F20"/>
<path d="M168.934 26.4562V9.76819H171.98V23.7682H179.126V26.4562H168.934Z" fill="#051F20"/>
<path d="M156.771 26.4562V9.76819H159.818V23.7682H166.963V26.4562H156.771Z" fill="#051F20"/>
<path d="M142.246 26.4562V9.76819H148.473C149.608 9.76819 150.609 9.97726 151.475 10.3954C152.356 10.7986 153.043 11.3959 153.536 12.1874C154.028 12.9639 154.275 13.9122 154.275 15.0322C154.275 16.1373 154.021 17.0855 153.513 17.877C153.02 18.6535 152.341 19.2509 151.475 19.669C150.609 20.0871 149.608 20.2962 148.473 20.2962H145.292V26.4562H142.246ZM145.292 17.6082H148.518C149.071 17.6082 149.548 17.5037 149.952 17.2946C150.355 17.0706 150.668 16.7645 150.892 16.3762C151.116 15.9879 151.228 15.5399 151.228 15.0322C151.228 14.5095 151.116 14.0615 150.892 13.6882C150.668 13.2999 150.355 13.0013 149.952 12.7922C149.548 12.5682 149.071 12.4562 148.518 12.4562H145.292V17.6082Z" fill="#051F20"/>
<path d="M131.149 26.725C129.85 26.725 128.715 26.4189 127.744 25.8066C126.789 25.1794 126.132 24.3357 125.773 23.2754L127.968 22.2226C128.282 22.9096 128.715 23.4472 129.268 23.8354C129.835 24.2237 130.462 24.4178 131.149 24.4178C131.687 24.4178 132.112 24.2984 132.426 24.0594C132.74 23.8205 132.896 23.5069 132.896 23.1186C132.896 22.8797 132.829 22.6856 132.695 22.5362C132.575 22.372 132.404 22.2376 132.18 22.133C131.971 22.0136 131.739 21.9165 131.485 21.8418L129.492 21.2818C128.461 20.9832 127.677 20.5277 127.14 19.9154C126.617 19.3032 126.356 18.5789 126.356 17.7426C126.356 16.996 126.542 16.3464 126.916 15.7938C127.304 15.2264 127.834 14.7858 128.506 14.4722C129.193 14.1586 129.977 14.0018 130.858 14.0018C132.008 14.0018 133.023 14.2781 133.904 14.8306C134.785 15.3832 135.413 16.1597 135.786 17.1602L133.546 18.213C133.337 17.6605 132.986 17.22 132.493 16.8914C132 16.5629 131.448 16.3986 130.836 16.3986C130.343 16.3986 129.955 16.5106 129.671 16.7346C129.387 16.9586 129.245 17.2498 129.245 17.6082C129.245 17.8322 129.305 18.0264 129.424 18.1906C129.544 18.3549 129.708 18.4893 129.917 18.5938C130.141 18.6984 130.395 18.7954 130.679 18.885L132.628 19.4674C133.628 19.7661 134.397 20.2141 134.935 20.8114C135.487 21.4088 135.764 22.1405 135.764 23.0066C135.764 23.7384 135.569 24.388 135.181 24.9554C134.793 25.508 134.255 25.941 133.568 26.2546C132.881 26.5682 132.075 26.725 131.149 26.725Z" fill="#051F20"/>
<path d="M120.868 26.4562V14.2706H123.803V26.4562H120.868ZM120.868 12.9042V9.76819H123.803V12.9042H120.868Z" fill="#051F20"/>
<path d="M115.225 26.4562V9.49939H118.159V26.4562H115.225Z" fill="#051F20"/>
<path d="M106.571 26.725C105.376 26.725 104.286 26.4488 103.3 25.8962C102.33 25.3437 101.553 24.5896 100.971 23.6338C100.403 22.6781 100.119 21.588 100.119 20.3634C100.119 19.1389 100.403 18.0488 100.971 17.093C101.553 16.1373 102.33 15.3832 103.3 14.8306C104.271 14.2781 105.361 14.0018 106.571 14.0018C107.765 14.0018 108.848 14.2781 109.819 14.8306C110.789 15.3832 111.558 16.1373 112.126 17.093C112.708 18.0338 112.999 19.124 112.999 20.3634C112.999 21.588 112.708 22.6781 112.126 23.6338C111.543 24.5896 110.767 25.3437 109.796 25.8962C108.826 26.4488 107.75 26.725 106.571 26.725ZM106.571 24.037C107.228 24.037 107.803 23.8802 108.295 23.5666C108.803 23.253 109.199 22.82 109.483 22.2674C109.781 21.7 109.931 21.0653 109.931 20.3634C109.931 19.6466 109.781 19.0194 109.483 18.4818C109.199 17.9293 108.803 17.4962 108.295 17.1826C107.803 16.8541 107.228 16.6898 106.571 16.6898C105.899 16.6898 105.309 16.8541 104.801 17.1826C104.293 17.4962 103.89 17.9293 103.591 18.4818C103.308 19.0194 103.166 19.6466 103.166 20.3634C103.166 21.0653 103.308 21.7 103.591 22.2674C103.89 22.82 104.293 23.253 104.801 23.5666C105.309 23.8802 105.899 24.037 106.571 24.037Z" fill="#051F20"/>
<path d="M91.9132 31.3842C91.0023 31.3842 90.1586 31.2349 89.382 30.9362C88.6055 30.6376 87.9335 30.2194 87.366 29.6818C86.8135 29.1592 86.4103 28.5394 86.1564 27.8226L88.8892 26.7922C89.0684 27.3597 89.4194 27.8152 89.942 28.1586C90.4796 28.517 91.1367 28.6962 91.9132 28.6962C92.5106 28.6962 93.0332 28.5842 93.4812 28.3602C93.9442 28.1362 94.3026 27.8077 94.5564 27.3746C94.8103 26.9565 94.9372 26.4488 94.9372 25.8514V23.0738L95.4972 23.7458C95.0791 24.4776 94.5191 25.0301 93.8172 25.4034C93.1154 25.7768 92.3164 25.9634 91.4204 25.9634C90.2855 25.9634 89.27 25.7021 88.374 25.1794C87.478 24.6568 86.7762 23.94 86.2684 23.029C85.7607 22.1181 85.5068 21.0952 85.5068 19.9602C85.5068 18.8104 85.7607 17.7874 86.2684 16.8914C86.7762 15.9954 87.4706 15.2936 88.3516 14.7858C89.2327 14.2632 90.2332 14.0018 91.3532 14.0018C92.2642 14.0018 93.0631 14.196 93.75 14.5842C94.4519 14.9576 95.0343 15.5026 95.4972 16.2194L95.094 16.9586V14.2706H97.8716V25.8514C97.8716 26.9117 97.6103 27.86 97.0876 28.6962C96.5799 29.5325 95.878 30.1896 94.982 30.6674C94.101 31.1453 93.078 31.3842 91.9132 31.3842ZM91.7788 23.253C92.406 23.253 92.9511 23.1186 93.414 22.8498C93.8919 22.5661 94.2652 22.1778 94.534 21.685C94.8028 21.1922 94.9372 20.6248 94.9372 19.9826C94.9372 19.3554 94.7954 18.7954 94.5116 18.3026C94.2428 17.7949 93.8695 17.3992 93.3916 17.1154C92.9287 16.8317 92.3911 16.6898 91.7788 16.6898C91.1666 16.6898 90.614 16.8317 90.1212 17.1154C89.6284 17.3992 89.2402 17.7949 88.9564 18.3026C88.6876 18.7954 88.5532 19.3554 88.5532 19.9826C88.5532 20.6098 88.6876 21.1698 88.9564 21.6626C89.2402 22.1554 89.621 22.5437 90.0988 22.8274C90.5916 23.1112 91.1516 23.253 91.7788 23.253Z" fill="#051F20"/>
<path d="M77.6218 26.4561V14.2705H80.377V16.9809L80.153 16.5777C80.4368 15.6668 80.8773 15.0321 81.4746 14.6737C82.0869 14.3153 82.8186 14.1361 83.6698 14.1361H84.3866V16.7345H83.3338C82.4976 16.7345 81.8256 16.9958 81.3178 17.5185C80.8101 18.0262 80.5562 18.743 80.5562 19.6689V26.4561H77.6218Z" fill="#051F20"/>
<path d="M68.3238 26.725C67.4726 26.725 66.7334 26.5832 66.1062 26.2994C65.479 26.0157 64.9937 25.6125 64.6502 25.0898C64.3067 24.5522 64.135 23.9325 64.135 23.2306C64.135 22.5586 64.2843 21.9613 64.583 21.4386C64.8817 20.901 65.3446 20.453 65.9718 20.0946C66.599 19.7362 67.3905 19.4824 68.3462 19.333L72.3334 18.6834V20.9234L68.9062 21.5058C68.3238 21.6104 67.8907 21.797 67.607 22.0658C67.3233 22.3346 67.1814 22.6856 67.1814 23.1186C67.1814 23.5368 67.3382 23.8728 67.6518 24.1266C67.9803 24.3656 68.3835 24.485 68.8614 24.485C69.4737 24.485 70.0113 24.3581 70.4742 24.1042C70.9521 23.8354 71.3179 23.4696 71.5718 23.0066C71.8406 22.5437 71.975 22.036 71.975 21.4834V18.3474C71.975 17.8248 71.7659 17.3917 71.3478 17.0482C70.9446 16.6898 70.407 16.5106 69.735 16.5106C69.1078 16.5106 68.5478 16.6824 68.055 17.0258C67.5771 17.3544 67.2262 17.7949 67.0022 18.3474L64.6054 17.1826C64.8443 16.5405 65.2177 15.988 65.7254 15.525C66.2481 15.0472 66.8603 14.6738 67.5622 14.405C68.2641 14.1362 69.0257 14.0018 69.847 14.0018C70.8475 14.0018 71.7286 14.1885 72.4902 14.5618C73.2518 14.9202 73.8417 15.428 74.2598 16.085C74.6929 16.7272 74.9094 17.4813 74.9094 18.3474V26.4562H72.1318V24.373L72.759 24.3282C72.4454 24.8509 72.0721 25.2914 71.639 25.6498C71.2059 25.9933 70.7131 26.2621 70.1606 26.4562C69.6081 26.6354 68.9958 26.725 68.3238 26.725Z" fill="#051F20"/>
<path d="M44.8806 26.4562V9.76819H47.7926L54.0422 18.2578H52.6534L58.7686 9.76819H61.6806V26.4562H58.6118V13.2402L59.799 13.5314L53.4598 21.9762H53.1014L46.919 13.5314L47.927 13.2402V26.4562H44.8806Z" fill="#051F20"/>
</svg>
