<svg width="147" height="24" viewBox="0 0 147 24" fill="none" xmlns="http://www.w3.org/2000/svg">
<path fill-rule="evenodd" clip-rule="evenodd" d="M18.0001 18.4813L21.6001 16.5V22.0187L18.0001 24V18.4813Z" fill="#2E7060"/>
<path fill-rule="evenodd" clip-rule="evenodd" d="M21.6 8.39996V13.9641L14.1 18.3V12.7359L21.6 8.39996Z" fill="#DBF0DD"/>
<path fill-rule="evenodd" clip-rule="evenodd" d="M0 20.9962V0L10.8 6.28652L21.6 0V5.52257L10.8 11.8094L5.1601 8.52664V24L0 20.9962Z" fill="#2E7060"/>
<path d="M141.023 19.6687C140.127 19.6687 139.298 19.5063 138.537 19.1815C137.786 18.8567 137.125 18.4031 136.554 17.8207C135.994 17.2383 135.557 16.5551 135.244 15.7711C134.93 14.9871 134.773 14.1303 134.773 13.2007C134.773 12.2711 134.925 11.4143 135.227 10.6303C135.541 9.83511 135.977 9.15191 136.537 8.58071C137.109 7.99831 137.775 7.55031 138.537 7.23671C139.298 6.91191 140.127 6.74951 141.023 6.74951C141.919 6.74951 142.72 6.90071 143.425 7.20311C144.142 7.50551 144.747 7.90871 145.24 8.41271C145.733 8.90551 146.085 9.44871 146.298 10.0423L144.249 10.9999C144.013 10.3727 143.616 9.85751 143.056 9.45431C142.496 9.03991 141.818 8.83271 141.023 8.83271C140.239 8.83271 139.545 9.01751 138.94 9.38711C138.346 9.75671 137.881 10.2663 137.545 10.9159C137.221 11.5655 137.058 12.3271 137.058 13.2007C137.058 14.0743 137.221 14.8415 137.545 15.5023C137.881 16.1519 138.346 16.6615 138.94 17.0311C139.545 17.4007 140.239 17.5855 141.023 17.5855C141.818 17.5855 142.496 17.3839 143.056 16.9807C143.616 16.5663 144.013 16.0455 144.249 15.4183L146.298 16.3759C146.085 16.9695 145.733 17.5183 145.24 18.0223C144.747 18.5151 144.142 18.9127 143.425 19.2151C142.72 19.5175 141.919 19.6687 141.023 19.6687Z" fill="white"/>
<path d="M126.349 19.4672V6.95117H128.634V17.4512H133.993V19.4672H126.349Z" fill="white"/>
<path d="M117.228 19.4672V6.95117H119.512V17.4512H124.872V19.4672H117.228Z" fill="white"/>
<path d="M106.334 19.4672V6.95117H111.004C111.855 6.95117 112.606 7.10797 113.255 7.42157C113.916 7.72397 114.431 8.17197 114.801 8.76557C115.171 9.34797 115.355 10.0592 115.355 10.8992C115.355 11.728 115.165 12.4392 114.784 13.0328C114.415 13.6152 113.905 14.0632 113.255 14.3768C112.606 14.6904 111.855 14.8472 111.004 14.8472H108.619V19.4672H106.334ZM108.619 12.8312H111.038C111.452 12.8312 111.811 12.7528 112.113 12.596C112.415 12.428 112.651 12.1984 112.819 11.9072C112.987 11.616 113.071 11.28 113.071 10.8992C113.071 10.5072 112.987 10.1712 112.819 9.89117C112.651 9.59997 112.415 9.37597 112.113 9.21917C111.811 9.05117 111.452 8.96717 111.038 8.96717H108.619V12.8312Z" fill="white"/>
<path d="M98.011 19.6687C97.0366 19.6687 96.1854 19.4391 95.4574 18.9799C94.7406 18.5095 94.2478 17.8767 93.979 17.0815L95.6254 16.2919C95.8606 16.8071 96.1854 17.2103 96.5998 17.5015C97.0254 17.7927 97.4958 17.9383 98.011 17.9383C98.4142 17.9383 98.7334 17.8487 98.9686 17.6695C99.2038 17.4903 99.3214 17.2551 99.3214 16.9639C99.3214 16.7847 99.271 16.6391 99.1702 16.5271C99.0806 16.4039 98.9518 16.3031 98.7838 16.2247C98.627 16.1351 98.4534 16.0623 98.263 16.0063L96.7678 15.5863C95.995 15.3623 95.407 15.0207 95.0038 14.5615C94.6118 14.1023 94.4158 13.5591 94.4158 12.9319C94.4158 12.3719 94.5558 11.8847 94.8358 11.4703C95.127 11.0447 95.5246 10.7143 96.0286 10.4791C96.5438 10.2439 97.1318 10.1263 97.7926 10.1263C98.655 10.1263 99.4166 10.3335 100.077 10.7479C100.738 11.1623 101.209 11.7447 101.489 12.4951L99.8086 13.2847C99.6518 12.8703 99.3886 12.5399 99.019 12.2935C98.6494 12.0471 98.235 11.9239 97.7758 11.9239C97.4062 11.9239 97.115 12.0079 96.9022 12.1759C96.6894 12.3439 96.583 12.5623 96.583 12.8311C96.583 12.9991 96.6278 13.1447 96.7174 13.2679C96.807 13.3911 96.9302 13.4919 97.087 13.5703C97.255 13.6487 97.4454 13.7215 97.6582 13.7887L99.1198 14.2255C99.8702 14.4495 100.447 14.7855 100.85 15.2335C101.265 15.6815 101.472 16.2303 101.472 16.8799C101.472 17.4287 101.326 17.9159 101.035 18.3415C100.744 18.7559 100.341 19.0807 99.8254 19.3159C99.3102 19.5511 98.7054 19.6687 98.011 19.6687Z" fill="white"/>
<path d="M90.3005 19.4672V10.328H92.5013V19.4672H90.3005ZM90.3005 9.30317V6.95117H92.5013V9.30317H90.3005Z" fill="white"/>
<path d="M86.0677 19.4671V6.74951H88.2685V19.4671H86.0677Z" fill="white"/>
<path d="M79.5772 19.6687C78.6812 19.6687 77.8636 19.4615 77.1244 19.0471C76.3964 18.6327 75.814 18.0671 75.3772 17.3503C74.9516 16.6335 74.7388 15.8159 74.7388 14.8975C74.7388 13.9791 74.9516 13.1615 75.3772 12.4447C75.814 11.7279 76.3964 11.1623 77.1244 10.7479C77.8524 10.3335 78.67 10.1263 79.5772 10.1263C80.4732 10.1263 81.2852 10.3335 82.0132 10.7479C82.7412 11.1623 83.318 11.7279 83.7436 12.4447C84.1804 13.1503 84.3988 13.9679 84.3988 14.8975C84.3988 15.8159 84.1804 16.6335 83.7436 17.3503C83.3068 18.0671 82.7244 18.6327 81.9964 19.0471C81.2684 19.4615 80.462 19.6687 79.5772 19.6687ZM79.5772 17.6527C80.07 17.6527 80.5012 17.5351 80.8708 17.2999C81.2516 17.0647 81.5484 16.7399 81.7612 16.3255C81.9852 15.8999 82.0972 15.4239 82.0972 14.8975C82.0972 14.3599 81.9852 13.8895 81.7612 13.4863C81.5484 13.0719 81.2516 12.7471 80.8708 12.5119C80.5012 12.2655 80.07 12.1423 79.5772 12.1423C79.0732 12.1423 78.6308 12.2655 78.25 12.5119C77.8692 12.7471 77.5668 13.0719 77.3428 13.4863C77.13 13.8895 77.0236 14.3599 77.0236 14.8975C77.0236 15.4239 77.13 15.8999 77.3428 16.3255C77.5668 16.7399 77.8692 17.0647 78.25 17.2999C78.6308 17.5351 79.0732 17.6527 79.5772 17.6527Z" fill="white"/>
<path d="M68.5841 23.1631C67.9009 23.1631 67.2681 23.0511 66.6857 22.8271C66.1033 22.6031 65.5993 22.2895 65.1737 21.8863C64.7593 21.4943 64.4569 21.0295 64.2665 20.4919L66.3161 19.7191C66.4505 20.1447 66.7137 20.4863 67.1057 20.7439C67.5089 21.0127 68.0017 21.1471 68.5841 21.1471C69.0321 21.1471 69.4241 21.0631 69.7601 20.8951C70.1073 20.7271 70.3761 20.4807 70.5665 20.1559C70.7569 19.8423 70.8521 19.4615 70.8521 19.0135V16.9303L71.2721 17.4343C70.9585 17.9831 70.5385 18.3975 70.0121 18.6775C69.4857 18.9575 68.8865 19.0975 68.2145 19.0975C67.3633 19.0975 66.6017 18.9015 65.9297 18.5095C65.2577 18.1175 64.7313 17.5799 64.3505 16.8967C63.9697 16.2135 63.7793 15.4463 63.7793 14.5951C63.7793 13.7327 63.9697 12.9655 64.3505 12.2935C64.7313 11.6215 65.2521 11.0951 65.9129 10.7143C66.5737 10.3223 67.3241 10.1263 68.1641 10.1263C68.8473 10.1263 69.4465 10.2719 69.9617 10.5631C70.4881 10.8431 70.9249 11.2519 71.2721 11.7895L70.9697 12.3439V10.3279H73.0529V19.0135C73.0529 19.8087 72.8569 20.5199 72.4649 21.1471C72.0841 21.7743 71.5577 22.2671 70.8857 22.6255C70.2249 22.9839 69.4577 23.1631 68.5841 23.1631ZM68.4833 17.0647C68.9537 17.0647 69.3625 16.9639 69.7097 16.7623C70.0681 16.5495 70.3481 16.2583 70.5497 15.8887C70.7513 15.5191 70.8521 15.0935 70.8521 14.6119C70.8521 14.1415 70.7457 13.7215 70.5329 13.3519C70.3313 12.9711 70.0513 12.6743 69.6929 12.4615C69.3457 12.2487 68.9425 12.1423 68.4833 12.1423C68.0241 12.1423 67.6097 12.2487 67.2401 12.4615C66.8705 12.6743 66.5793 12.9711 66.3665 13.3519C66.1649 13.7215 66.0641 14.1415 66.0641 14.6119C66.0641 15.0823 66.1649 15.5023 66.3665 15.8719C66.5793 16.2415 66.8649 16.5327 67.2233 16.7455C67.5929 16.9583 68.0129 17.0647 68.4833 17.0647Z" fill="white"/>
<path d="M57.8655 19.4671V10.3279H59.9319V12.3607L59.7639 12.0583C59.9767 11.3751 60.3071 10.8991 60.7551 10.6303C61.2143 10.3615 61.7631 10.2271 62.4015 10.2271H62.9391V12.1759H62.1495C61.5223 12.1759 61.0183 12.3719 60.6375 12.7639C60.2567 13.1447 60.0663 13.6823 60.0663 14.3767V19.4671H57.8655Z" fill="white"/>
<path d="M50.8921 19.6687C50.2537 19.6687 49.6993 19.5623 49.2289 19.3495C48.7585 19.1367 48.3945 18.8343 48.1369 18.4423C47.8793 18.0391 47.7505 17.5743 47.7505 17.0479C47.7505 16.5439 47.8625 16.0959 48.0865 15.7039C48.3105 15.3007 48.6577 14.9647 49.1281 14.6959C49.5985 14.4271 50.1921 14.2367 50.9089 14.1247L53.8993 13.6375V15.3175L51.3289 15.7543C50.8921 15.8327 50.5673 15.9727 50.3545 16.1743C50.1417 16.3759 50.0353 16.6391 50.0353 16.9639C50.0353 17.2775 50.1529 17.5295 50.3881 17.7199C50.6345 17.8991 50.9369 17.9887 51.2953 17.9887C51.7545 17.9887 52.1577 17.8935 52.5049 17.7031C52.8633 17.5015 53.1377 17.2271 53.3281 16.8799C53.5297 16.5327 53.6305 16.1519 53.6305 15.7375V13.3855C53.6305 12.9935 53.4737 12.6687 53.1601 12.4111C52.8577 12.1423 52.4545 12.0079 51.9505 12.0079C51.4801 12.0079 51.0601 12.1367 50.6905 12.3943C50.3321 12.6407 50.0689 12.9711 49.9009 13.3855L48.1033 12.5119C48.2825 12.0303 48.5625 11.6159 48.9433 11.2687C49.3353 10.9103 49.7945 10.6303 50.3209 10.4287C50.8473 10.2271 51.4185 10.1263 52.0345 10.1263C52.7849 10.1263 53.4457 10.2663 54.0169 10.5463C54.5881 10.8151 55.0305 11.1959 55.3441 11.6887C55.6689 12.1703 55.8313 12.7359 55.8313 13.3855V19.4671H53.7481V17.9047L54.2185 17.8711C53.9833 18.2631 53.7033 18.5935 53.3785 18.8623C53.0537 19.1199 52.6841 19.3215 52.2697 19.4671C51.8553 19.6015 51.3961 19.6687 50.8921 19.6687Z" fill="white"/>
<path d="M33.3096 19.4672V6.95117H35.4936L40.1808 13.3184H39.1392L43.7256 6.95117H45.9096V19.4672H43.608V9.55517L44.4984 9.77357L39.744 16.1072H39.4752L34.8384 9.77357L35.5944 9.55517V19.4672H33.3096Z" fill="white"/>
</svg>
