<svg width="180" height="22" viewBox="0 0 180 22" fill="none" xmlns="http://www.w3.org/2000/svg">
<path d="M5.22 15.5443C5.68667 15.5443 6.07334 15.451 6.38 15.2643C6.7 15.0776 6.95333 14.8376 7.14 14.5443C7.34 14.2376 7.48 13.8843 7.56 13.4843C7.64 13.0843 7.68 12.6776 7.68 12.2643C7.68 11.851 7.63334 11.4443 7.54 11.0443C7.46 10.6443 7.32 10.291 7.12 9.9843C6.92 9.6643 6.66 9.411 6.34 9.2243C6.03334 9.0243 5.65333 8.9243 5.2 8.9243C4.73333 8.9243 4.34 9.0243 4.02 9.2243C3.71333 9.411 3.46 9.6576 3.26 9.9643C3.07333 10.271 2.94 10.6243 2.86 11.0243C2.78 11.4243 2.74 11.8376 2.74 12.2643C2.74 12.6776 2.78 13.0843 2.86 13.4843C2.95333 13.8843 3.09333 14.2376 3.28 14.5443C3.48 14.8376 3.74 15.0776 4.06 15.2643C4.38 15.451 4.76667 15.5443 5.22 15.5443ZM0 7.0643H2.7V8.3843H2.74C3.08667 7.8243 3.52667 7.41763 4.06 7.1643C4.59333 6.91097 5.18 6.7843 5.82 6.7843C6.63334 6.7843 7.33334 6.93763 7.92 7.2443C8.50667 7.55097 8.99337 7.95763 9.37997 8.4643C9.76667 8.97097 10.0534 9.5643 10.24 10.2443C10.4267 10.911 10.52 11.611 10.52 12.3443C10.52 13.0376 10.4267 13.7043 10.24 14.3443C10.0534 14.9843 9.76667 15.551 9.37997 16.0443C9.00667 16.5376 8.53334 16.931 7.96 17.2243C7.4 17.5176 6.74 17.6643 5.98 17.6643C5.34 17.6643 4.74667 17.5376 4.2 17.2843C3.66667 17.0176 3.22667 16.631 2.88 16.1243H2.84V21.0243H0V7.0643ZM14.9466 12.2443C14.9466 12.6576 14.9866 13.0643 15.0666 13.4643C15.1466 13.851 15.2799 14.2043 15.4666 14.5243C15.6666 14.831 15.9266 15.0776 16.2466 15.2643C16.5666 15.451 16.9666 15.5443 17.4466 15.5443C17.9266 15.5443 18.3266 15.451 18.6466 15.2643C18.9799 15.0776 19.2399 14.831 19.4266 14.5243C19.6266 14.2043 19.7666 13.851 19.8466 13.4643C19.9266 13.0643 19.9666 12.6576 19.9666 12.2443C19.9666 11.831 19.9266 11.4243 19.8466 11.0243C19.7666 10.6243 19.6266 10.271 19.4266 9.9643C19.2399 9.6576 18.9799 9.411 18.6466 9.2243C18.3266 9.0243 17.9266 8.9243 17.4466 8.9243C16.9666 8.9243 16.5666 9.0243 16.2466 9.2243C15.9266 9.411 15.6666 9.6576 15.4666 9.9643C15.2799 10.271 15.1466 10.6243 15.0666 11.0243C14.9866 11.4243 14.9466 11.831 14.9466 12.2443ZM12.1066 12.2443C12.1066 11.4176 12.2333 10.671 12.4866 10.0043C12.7399 9.3243 13.0999 8.75097 13.5666 8.2843C14.0333 7.8043 14.5933 7.43763 15.2466 7.1843C15.8999 6.91763 16.6333 6.7843 17.4466 6.7843C18.2599 6.7843 18.9933 6.91763 19.6466 7.1843C20.3133 7.43763 20.8799 7.8043 21.3466 8.2843C21.8133 8.75097 22.1733 9.3243 22.4266 10.0043C22.6799 10.671 22.8066 11.4176 22.8066 12.2443C22.8066 13.071 22.6799 13.8176 22.4266 14.4843C22.1733 15.151 21.8133 15.7243 21.3466 16.2043C20.8799 16.671 20.3133 17.031 19.6466 17.2843C18.9933 17.5376 18.2599 17.6643 17.4466 17.6643C16.6333 17.6643 15.8999 17.5376 15.2466 17.2843C14.5933 17.031 14.0333 16.671 13.5666 16.2043C13.0999 15.7243 12.7399 15.151 12.4866 14.4843C12.2333 13.8176 12.1066 13.071 12.1066 12.2443ZM36.6732 17.4043H33.7532L31.9132 10.4643H31.8732L30.1132 17.4043H27.1732L23.8932 7.0643H26.8932L28.7932 14.0843H28.8332L30.5532 7.0643H33.3132L35.0732 14.0643H35.1132L37.0132 7.0643H39.9332L36.6732 17.4043ZM48.3022 11.1243C48.1689 10.4043 47.9289 9.8576 47.5822 9.4843C47.2489 9.11097 46.7356 8.9243 46.0422 8.9243C45.5889 8.9243 45.2089 9.0043 44.9022 9.1643C44.6089 9.31097 44.3689 9.4976 44.1822 9.7243C44.0089 9.951 43.8822 10.191 43.8022 10.4443C43.7356 10.6976 43.6956 10.9243 43.6822 11.1243H48.3022ZM43.6822 12.9243C43.7222 13.8443 43.9556 14.511 44.3822 14.9243C44.8089 15.3376 45.4222 15.5443 46.2222 15.5443C46.7956 15.5443 47.2889 15.4043 47.7022 15.1243C48.1156 14.831 48.3689 14.5243 48.4622 14.2043H50.9622C50.5622 15.4443 49.9489 16.331 49.1222 16.8643C48.2956 17.3976 47.2956 17.6643 46.1222 17.6643C45.3089 17.6643 44.5756 17.5376 43.9222 17.2843C43.2689 17.0176 42.7156 16.6443 42.2622 16.1643C41.8089 15.6843 41.4556 15.111 41.2022 14.4443C40.9622 13.7776 40.8422 13.0443 40.8422 12.2443C40.8422 11.471 40.9689 10.751 41.2222 10.0843C41.4756 9.4176 41.8356 8.8443 42.3022 8.3643C42.7689 7.87097 43.3222 7.4843 43.9622 7.2043C44.6156 6.9243 45.3356 6.7843 46.1222 6.7843C47.0022 6.7843 47.7689 6.95763 48.4222 7.3043C49.0756 7.63763 49.6089 8.09097 50.0222 8.6643C50.4489 9.23763 50.7556 9.891 50.9422 10.6243C51.1289 11.3576 51.1956 12.1243 51.1422 12.9243H43.6822ZM53.0266 7.0643H55.7266V8.9843H55.7666C55.8999 8.6643 56.0799 8.37097 56.3066 8.1043C56.5333 7.8243 56.7933 7.59097 57.0866 7.4043C57.3799 7.2043 57.6933 7.05097 58.0266 6.9443C58.3599 6.83763 58.7066 6.7843 59.0666 6.7843C59.2533 6.7843 59.4599 6.81763 59.6866 6.8843V9.5243C59.5533 9.4976 59.3933 9.4776 59.2066 9.4643C59.0199 9.4376 58.8399 9.4243 58.6666 9.4243C58.1466 9.4243 57.7066 9.511 57.3466 9.6843C56.9866 9.8576 56.6933 10.0976 56.4666 10.4043C56.2533 10.6976 56.0999 11.0443 56.0066 11.4443C55.9133 11.8443 55.8666 12.2776 55.8666 12.7443V17.4043H53.0266V7.0643ZM67.6085 11.1243C67.4751 10.4043 67.2351 9.8576 66.8885 9.4843C66.5551 9.11097 66.0418 8.9243 65.3485 8.9243C64.8951 8.9243 64.5151 9.0043 64.2085 9.1643C63.9151 9.31097 63.6751 9.4976 63.4885 9.7243C63.3151 9.951 63.1885 10.191 63.1085 10.4443C63.0418 10.6976 63.0018 10.9243 62.9885 11.1243H67.6085ZM62.9885 12.9243C63.0285 13.8443 63.2618 14.511 63.6885 14.9243C64.1151 15.3376 64.7285 15.5443 65.5285 15.5443C66.1018 15.5443 66.5951 15.4043 67.0085 15.1243C67.4218 14.831 67.6751 14.5243 67.7685 14.2043H70.2685C69.8685 15.4443 69.2551 16.331 68.4285 16.8643C67.6018 17.3976 66.6018 17.6643 65.4285 17.6643C64.6151 17.6643 63.8818 17.5376 63.2285 17.2843C62.5751 17.0176 62.0218 16.6443 61.5685 16.1643C61.1151 15.6843 60.7618 15.111 60.5085 14.4443C60.2685 13.7776 60.1485 13.0443 60.1485 12.2443C60.1485 11.471 60.2751 10.751 60.5285 10.0843C60.7818 9.4176 61.1418 8.8443 61.6085 8.3643C62.0751 7.87097 62.6285 7.4843 63.2685 7.2043C63.9218 6.9243 64.6418 6.7843 65.4285 6.7843C66.3085 6.7843 67.0751 6.95763 67.7285 7.3043C68.3818 7.63763 68.9151 8.09097 69.3285 8.6643C69.7551 9.23763 70.0618 9.891 70.2485 10.6243C70.4351 11.3576 70.5018 12.1243 70.4485 12.9243H62.9885ZM79.6728 12.2043C79.6728 11.7776 79.6328 11.371 79.5528 10.9843C79.4728 10.5843 79.3328 10.2376 79.1328 9.9443C78.9462 9.6376 78.6995 9.39097 78.3928 9.2043C78.0862 9.01763 77.6995 8.9243 77.2328 8.9243C76.7662 8.9243 76.3728 9.01763 76.0528 9.2043C75.7328 9.39097 75.4728 9.6376 75.2728 9.9443C75.0862 10.251 74.9462 10.6043 74.8528 11.0043C74.7728 11.391 74.7328 11.7976 74.7328 12.2243C74.7328 12.6243 74.7795 13.0243 74.8728 13.4243C74.9662 13.8243 75.1128 14.1843 75.3128 14.5043C75.5262 14.811 75.7862 15.0643 76.0928 15.2643C76.4128 15.451 76.7928 15.5443 77.2328 15.5443C77.6995 15.5443 78.0862 15.451 78.3928 15.2643C78.7128 15.0776 78.9662 14.831 79.1528 14.5243C79.3395 14.2043 79.4728 13.8443 79.5528 13.4443C79.6328 13.0443 79.6728 12.631 79.6728 12.2043ZM79.7128 16.0843H79.6728C79.3395 16.6443 78.8995 17.051 78.3528 17.3043C77.8195 17.5443 77.2128 17.6643 76.5328 17.6643C75.7595 17.6643 75.0795 17.5176 74.4928 17.2243C73.9062 16.9176 73.4195 16.511 73.0328 16.0043C72.6595 15.4843 72.3728 14.891 72.1728 14.2243C71.9862 13.5576 71.8928 12.8643 71.8928 12.1443C71.8928 11.451 71.9862 10.7843 72.1728 10.1443C72.3728 9.491 72.6595 8.91763 73.0328 8.4243C73.4195 7.93097 73.8995 7.53763 74.4728 7.2443C75.0462 6.93763 75.7128 6.7843 76.4728 6.7843C77.0862 6.7843 77.6662 6.91763 78.2128 7.1843C78.7728 7.43763 79.2128 7.81763 79.5328 8.3243H79.5728V3.1243H82.4128V17.4043H79.7128V16.0843ZM98.1058 12.2443C98.1058 11.8043 98.0591 11.3843 97.9658 10.9843C97.8725 10.5843 97.7258 10.231 97.5258 9.9243C97.3258 9.6176 97.0725 9.37763 96.7658 9.2043C96.4725 9.01763 96.1125 8.9243 95.6858 8.9243C95.2725 8.9243 94.9125 9.01763 94.6058 9.2043C94.2991 9.37763 94.0458 9.6176 93.8458 9.9243C93.6458 10.231 93.4991 10.5843 93.4058 10.9843C93.3125 11.3843 93.2658 11.8043 93.2658 12.2443C93.2658 12.671 93.3125 13.0843 93.4058 13.4843C93.4991 13.8843 93.6458 14.2376 93.8458 14.5443C94.0458 14.851 94.2991 15.0976 94.6058 15.2843C94.9125 15.4576 95.2725 15.5443 95.6858 15.5443C96.1125 15.5443 96.4725 15.4576 96.7658 15.2843C97.0725 15.0976 97.3258 14.851 97.5258 14.5443C97.7258 14.2376 97.8725 13.8843 97.9658 13.4843C98.0591 13.0843 98.1058 12.671 98.1058 12.2443ZM90.5258 3.1243H93.3658V8.3243H93.4058C93.7525 7.79097 94.2191 7.4043 94.8058 7.1643C95.4058 6.91097 96.0258 6.7843 96.6658 6.7843C97.1858 6.7843 97.6991 6.89097 98.2058 7.1043C98.7125 7.31763 99.1663 7.6443 99.5663 8.0843C99.9793 8.5243 100.312 9.09097 100.566 9.7843C100.819 10.4643 100.946 11.2776 100.946 12.2243C100.946 13.171 100.819 13.991 100.566 14.6843C100.312 15.3643 99.9793 15.9243 99.5663 16.3643C99.1663 16.8043 98.7125 17.131 98.2058 17.3443C97.6991 17.5576 97.1858 17.6643 96.6658 17.6643C95.9058 17.6643 95.2258 17.5443 94.6258 17.3043C94.0258 17.0643 93.5725 16.6576 93.2658 16.0843H93.2258V17.4043H90.5258V3.1243ZM108.052 18.6843C107.745 19.5243 107.319 20.1243 106.772 20.4843C106.225 20.8443 105.465 21.0243 104.492 21.0243C104.199 21.0243 103.905 21.011 103.612 20.9843C103.332 20.971 103.045 20.951 102.752 20.9243V18.5843C103.019 18.611 103.292 18.6376 103.572 18.6643C103.852 18.691 104.132 18.6976 104.412 18.6843C104.785 18.6443 105.059 18.4976 105.232 18.2443C105.419 17.991 105.512 17.711 105.512 17.4043C105.512 17.1776 105.472 16.9643 105.392 16.7643L101.772 7.0643H104.792L107.132 14.1443H107.172L109.432 7.0643H112.372L108.052 18.6843ZM129.01 15.4805C129.01 15.7474 128.958 15.9981 128.854 16.2324C128.756 16.4668 128.62 16.6719 128.444 16.8477C128.275 17.0169 128.073 17.1536 127.838 17.2578C127.604 17.3555 127.353 17.4043 127.087 17.4043H121.725C121.465 17.4043 121.217 17.3555 120.983 17.2578C120.749 17.1536 120.544 17.0169 120.368 16.8477C120.199 16.6719 120.062 16.4668 119.958 16.2324C119.86 15.9981 119.811 15.7474 119.811 15.4805V3H121.725V8.83985C121.738 8.58594 121.797 8.34831 121.901 8.12696C122.005 7.89909 122.142 7.70378 122.311 7.54102C122.487 7.37175 122.689 7.24154 122.917 7.15039C123.144 7.05274 123.389 7.00391 123.649 7.00391H127.087C127.353 7.00391 127.604 7.05599 127.838 7.16016C128.073 7.25782 128.275 7.39453 128.444 7.57032C128.62 7.73959 128.756 7.94141 128.854 8.17578C128.958 8.41016 129.01 8.66081 129.01 8.92774V15.4805ZM121.725 8.92774V15.4805H127.087V8.92774H121.725ZM141.408 15.4805C141.408 15.7474 141.356 15.9981 141.251 16.2324C141.154 16.4668 141.017 16.6719 140.841 16.8477C140.672 17.0169 140.47 17.1536 140.236 17.2578C140.008 17.3555 139.76 17.4043 139.494 17.4043H134.328C134.067 17.4043 133.82 17.3555 133.585 17.2578C133.351 17.1536 133.146 17.0169 132.97 16.8477C132.801 16.6719 132.664 16.4668 132.56 16.2324C132.462 15.9981 132.413 15.7474 132.413 15.4805V8.92774C132.413 8.66081 132.462 8.41016 132.56 8.17578C132.664 7.94141 132.801 7.73959 132.97 7.57032C133.146 7.39453 133.351 7.25782 133.585 7.16016C133.82 7.05599 134.067 7.00391 134.328 7.00391H139.494C139.76 7.00391 140.008 7.05599 140.236 7.16016C140.47 7.25782 140.672 7.39453 140.841 7.57032C141.017 7.73959 141.154 7.94141 141.251 8.17578C141.356 8.41016 141.408 8.66081 141.408 8.92774V15.4805ZM134.328 8.92774V15.4805H139.494V8.92774H134.328ZM153.883 7.00391L150.104 12.082L154.059 17.4043H151.735L148.942 13.6445L146.139 17.4043H143.815L147.78 12.082L144 7.00391H146.315L148.942 10.5195L151.559 7.00391H153.883Z" fill="#343434"/>
<path d="M129.199 15.4805C129.199 15.7474 129.147 15.9981 129.043 16.2324C128.945 16.4668 128.809 16.6719 128.633 16.8477C128.464 17.0169 128.262 17.1536 128.027 17.2578C127.793 17.3555 127.542 17.4043 127.276 17.4043H121.914C121.654 17.4043 121.406 17.3555 121.172 17.2578C120.938 17.1536 120.733 17.0169 120.557 16.8477C120.388 16.6719 120.251 16.4668 120.147 16.2324C120.049 15.9981 120 15.7474 120 15.4805V3H121.914V8.83985C121.927 8.58594 121.986 8.34831 122.09 8.12696C122.194 7.89909 122.331 7.70378 122.5 7.54102C122.676 7.37175 122.878 7.24154 123.106 7.15039C123.333 7.05274 123.578 7.00391 123.838 7.00391H127.276C127.542 7.00391 127.793 7.05599 128.027 7.16016C128.262 7.25782 128.464 7.39453 128.633 7.57032C128.809 7.73959 128.945 7.94141 129.043 8.17578C129.147 8.41016 129.199 8.66081 129.199 8.92774V15.4805ZM121.914 8.92774V15.4805H127.276V8.92774H121.914ZM141.597 15.4805C141.597 15.7474 141.545 15.9981 141.44 16.2324C141.343 16.4668 141.206 16.6719 141.03 16.8477C140.861 17.0169 140.659 17.1536 140.425 17.2578C140.197 17.3555 139.949 17.4043 139.683 17.4043H134.517C134.256 17.4043 134.009 17.3555 133.774 17.2578C133.54 17.1536 133.335 17.0169 133.159 16.8477C132.99 16.6719 132.853 16.4668 132.749 16.2324C132.651 15.9981 132.602 15.7474 132.602 15.4805V8.92774C132.602 8.66081 132.651 8.41016 132.749 8.17578C132.853 7.94141 132.99 7.73959 133.159 7.57032C133.335 7.39453 133.54 7.25782 133.774 7.16016C134.009 7.05599 134.256 7.00391 134.517 7.00391H139.683C139.949 7.00391 140.197 7.05599 140.425 7.16016C140.659 7.25782 140.861 7.39453 141.03 7.57032C141.206 7.73959 141.343 7.94141 141.44 8.17578C141.545 8.41016 141.597 8.66081 141.597 8.92774V15.4805ZM134.517 8.92774V15.4805H139.683V8.92774H134.517ZM154.072 7.00391L150.293 12.082L154.248 17.4043H151.924L149.131 13.6445L146.328 17.4043H144.004L147.969 12.082L144.189 7.00391H146.504L149.131 10.5195L151.748 7.00391H154.072Z" fill="#343434"/>
<path d="M177 0H162C160.343 0 159 1.34315 159 3V18C159 19.6569 160.343 21 162 21H177C178.657 21 180 19.6569 180 18V3C180 1.34315 178.657 0 177 0Z" fill="#343434"/>
<path d="M168.053 7.67969V16H166.514V7.67969H168.053ZM166.436 4.47656H168.131V6.07812H166.436V4.47656ZM172.478 7.67969V16H170.939V7.67969H172.478ZM170.861 4.47656H172.557V6.07812H170.861V4.47656Z" fill="#F9F0EA"/>
</svg>
